<?xml version="1.0" encoding="UTF-8"?>
<svg width="32px" height="32px" viewBox="0 0 32 32" version="1.1" xmlns="http://www.w3.org/2000/svg" xmlns:xlink="http://www.w3.org/1999/xlink">
    <!-- Generator: Sketch 58 (84663) - https://sketch.com -->
    <title>icon/Archive - DB</title>
    <desc>Created with Sketch.</desc>
    <g id="icon/Archive---DB" stroke="none" stroke-width="1" fill="none" fill-rule="evenodd">
        <g id="Group" stroke="#333333">
            <circle id="Oval-Copy" cx="16" cy="16" r="15.5"></circle>
        </g>
        <g id="icon/Archive" transform="translate(4.000000, 4.000000)" fill="#333333">
            <g id="Group" transform="translate(4.000000, 4.000000)">
                <path d="M15,4 L15,15 C15,16.1045695 14.1045695,17 13,17 L3,17 C1.8954305,17 1,16.1045695 1,15 L1,4 L15,4 Z M10,6 L6,6 C5.44771525,6 5,6.44771525 5,7 C5,7.55228475 5.44771525,8 6,8 L6,8 L10,8 C10.5522847,8 11,7.55228475 11,7 C11,6.44771525 10.5522847,6 10,6 L10,6 Z" id="Combined-Shape"></path>
                <path d="M1,0 L15,0 C15.5522847,-1.01453063e-16 16,0.44771525 16,1 L16,3 L16,3 L0,3 L0,1 C-6.76353751e-17,0.44771525 0.44771525,1.01453063e-16 1,0 Z" id="Rectangle-Copy"></path>
            </g>
        </g>
    </g>
</svg>