<?xml version="1.0" encoding="UTF-8"?>
<svg width="280px" height="280px" viewBox="0 0 280 280" version="1.1" xmlns="http://www.w3.org/2000/svg" xmlns:xlink="http://www.w3.org/1999/xlink">
    <!-- Generator: Sketch 58 (84663) - https://sketch.com -->
    <title>Logo/Future/Database - normal</title>
    <desc>Created with Sketch.</desc>
    <defs>
        <linearGradient x1="36.8%" y1="0%" x2="67.5%" y2="100%" id="linearGradient-1">
            <stop stop-color="#2F3843" offset="0%"></stop>
            <stop stop-color="#1D1D1D" offset="100%"></stop>
        </linearGradient>
    </defs>
    <g id="Logo/Future/Database---normal" stroke="none" stroke-width="1" fill="none" fill-rule="evenodd">
        <g id="Group" transform="translate(20.000000, 20.000000)" fill="url(#linearGradient-1)" fill-rule="nonzero">
            <rect id="Rectangle_1655" x="0" y="0" width="240" height="240" rx="8"></rect>
        </g>
        <g id="Group" transform="translate(86.000000, 73.000000)" fill="#F5C910">
            <path d="M53.6,6.93715811e-16 C82.8246791,7.85169776e-15 107.2,10.4465661 107.2,26.8 L107.2,107.2 L107.192707,107.688826 C106.712009,123.761321 82.5324323,134 53.6,134 C24.6675677,134 0.487991353,123.761321 0.0072930703,107.688826 L0,107.2 L0,26.8 L0.0072930703,26.3111736 C0.487991353,10.2386794 24.6675677,-6.39268632e-15 53.6,6.93715811e-16 Z M93.8015556,91.420127 C84.6016503,97.0748136 69.9598384,100.5 53.6,100.5 C37.2407556,100.5 22.599413,97.0750623 13.3994465,91.420743 L13.4,107.2 L13.4039123,107.328587 C13.5291449,109.407418 16.662784,112.506074 23.0759513,115.254575 C30.9272881,118.619433 41.8533215,120.6 53.6,120.6 C65.3466785,120.6 76.2727119,118.619433 84.1240487,115.254575 C90.537216,112.506074 93.6708551,109.407418 93.7960877,107.328587 L93.8,107.2 L93.8015556,91.420127 Z M93.8015556,64.620127 C84.6016503,70.2748136 69.9598384,73.7 53.6,73.7 C37.2407556,73.7 22.599413,70.2750623 13.3994465,64.620743 L13.4001394,83.2012364 C19.941147,89.1234501 35.3770499,93.8 53.6,93.8 C71.8238896,93.8 87.2604448,89.1229679 93.8008723,83.2003204 Z M93.8008723,83.2003204 L93.8015556,37.820127 C84.6016503,43.4748136 69.9598384,46.9 53.6,46.9 C37.2407556,46.9 22.599413,43.4750623 13.3994465,37.820743 L13.3991277,56.4003204 C19.9395552,62.3229679 35.3761104,67 53.6,67 C71.8248292,67 87.2620365,62.3224856 93.8018839,56.3994043 L93.8015556,37.820127 Z M53.6,13.4 C41.8533215,13.4 30.9272881,15.3805668 23.0759513,18.7454254 C16.662784,21.4939257 13.5291449,24.5925822 13.4039123,26.6714133 L13.4,26.8 L13.4,26.8 L13.4001394,29.6012364 C19.941147,35.5234501 35.3770499,40.2 53.6,40.2 C71.8238896,40.2 87.2604448,35.5229679 93.8008723,29.6003204 L93.8,26.8 L93.7960877,26.6714133 C93.6708551,24.5925822 90.537216,21.4939257 84.1240487,18.7454254 C76.2727119,15.3805668 65.3466785,13.4 53.6,13.4 Z" id="Combined-Shape" fill-rule="nonzero"></path>
            <rect id="Rectangle-Copy-6" x="20.1" y="46.9" width="13.4" height="13.4" rx="6.7"></rect>
            <rect id="Rectangle-Copy-7" x="20.1" y="73.7" width="13.4" height="13.4" rx="6.7"></rect>
            <rect id="Rectangle-Copy-8" x="20.1" y="100.5" width="13.4" height="13.4" rx="6.7"></rect>
        </g>
    </g>
</svg>