<svg xmlns="http://www.w3.org/2000/svg" width="132.001" height="112.002" viewBox="0 0 132.001 112.002">
    <defs>
        <style>
            .cls-1{fill:#5f738c}.cls-2{fill:#7c90a9}.cls-3{fill:#00a99d;opacity:0}
        </style>
    </defs>
    <g id="btn_foler_n" transform="translate(-165 -135.999)">
        <path id="Union_146" d="M6-14537a6 6 0 0 1-6-6v-100a6 6 0 0 1 6-6h46l20 12h54a6 6 0 0 1 6 6v88a6 6 0 0 1-6 6z" class="cls-1" data-name="Union 146" transform="translate(165 14785)"/>
        <rect id="Rectangle_2091" width="132" height="92" class="cls-2" data-name="Rectangle 2091" rx="6" transform="translate(165 156)"/>
        <path id="btn_foler_n-2" d="M6 0h120a6 6 0 0 1 6 6v100a6 6 0 0 1-6 6H6a6 6 0 0 1-6-6V6a6 6 0 0 1 6-6z" class="cls-3" data-name="btn_foler_n" transform="translate(165 136)"/>
    </g>
</svg>
