<?xml version="1.0" encoding="UTF-8"?>
<svg width="32px" height="32px" viewBox="0 0 32 32" version="1.1" xmlns="http://www.w3.org/2000/svg" xmlns:xlink="http://www.w3.org/1999/xlink">
    <!-- Generator: Sketch 58 (84663) - https://sketch.com -->
    <title>icon/Link - DB</title>
    <desc>Created with Sketch.</desc>
    <g id="icon/Link---DB" stroke="none" stroke-width="1" fill="none" fill-rule="evenodd">
        <g id="Group" stroke="#333333">
            <circle id="Oval-Copy" cx="16" cy="16" r="15.5"></circle>
        </g>
        <g id="icon/Link" transform="translate(4.000000, 4.000000)" fill="#333333">
            <g id="Group" transform="translate(12.000000, 12.003048) rotate(-315.000000) translate(-12.000000, -12.003048) translate(7.000000, 0.503048)">
                <path d="M5,8.09454629e-14 C7.76142375,8.29745242e-14 10,2.23857625 10,5 L10,6 C10,8.05011298 8.76615282,9.81204551 7.0005324,10.5837237 L7.00088251,8.23531632 C7.6141196,7.68602056 8,6.88807388 8,6 L8,5 C8,3.34314575 6.65685425,2 5,2 C3.34314575,2 2,3.34314575 2,5 L2,6 C2,6.88854726 2.3862919,7.68687122 3.00009834,8.23619452 L3.00046106,10.5841577 C1.23431003,9.81270639 -1.87407514e-15,8.05049747 -3.6739404e-16,6 L3.6739404e-16,5 C2.39645529e-15,2.23857625 2.23857625,7.89164017e-14 5,8.09454629e-14 Z" id="Combined-Shape" fill-rule="nonzero"></path>
                <path d="M5,11.9969517 C7.76142375,11.9969517 10,14.2355279 10,16.9969517 L10,17.9969517 C10,20.0470647 8.76615282,21.8089972 7.0005324,22.5806753 L7.00088251,20.232268 C7.6141196,19.6829722 8,18.8850256 8,17.9969517 L8,16.9969517 C8,15.3400974 6.65685425,13.9969517 5,13.9969517 C3.34314575,13.9969517 2,15.3400974 2,16.9969517 L2,17.9969517 C2,18.8854989 2.3862919,19.6838229 3.00009834,20.2331462 L3.00046106,22.5811094 C1.23431003,21.8096581 -1.87407514e-15,20.0474491 -3.6739404e-16,17.9969517 L3.6739404e-16,16.9969517 C2.39645529e-15,14.2355279 2.23857625,11.9969517 5,11.9969517 Z" id="Combined-Shape-Copy" fill-rule="nonzero" transform="translate(5.000000, 17.289031) rotate(-180.000000) translate(-5.000000, -17.289031) "></path>
                <rect id="Rectangle" x="4" y="6.49695167" width="2" height="10" rx="1"></rect>
            </g>
        </g>
    </g>
</svg>