<svg xmlns="http://www.w3.org/2000/svg" width="20" height="17.144" viewBox="0 0 20 17.144">
    <defs>
        <style>
            .cls-1{fill:#333}
        </style>
    </defs>
    <path id="btn_reset_h" d="M-8615.786-1572.638l1.349-1.368a6.623 6.623 0 0 0 3.866 1.244 6.669 6.669 0 0 0 6.667-6.667 6.669 6.669 0 0 0-6.667-6.667c-3.681 0-6.666 2.413-6.666 6.1h2.855l-3.808 4-3.811-4h2.858c0-4.734 3.836-8 8.57-8a8.573 8.573 0 0 1 8.571 8.573 8.573 8.573 0 0 1-8.571 8.571 8.519 8.519 0 0 1-5.213-1.786zM-8613-1576v-1h4v1zm0-3v-1h6v1zm0-3v-1h6v1z" class="cls-1" transform="translate(8622 1588.001)"/>
</svg>
