<svg xmlns="http://www.w3.org/2000/svg" width="36" height="36" viewBox="0 0 36 36">
    <defs>
        <style>
            .cls-1,.cls-5{fill:none}.cls-1{stroke:#333}.cls-2{fill:#333}.cls-3{fill:#fff}.cls-4{stroke:none}
        </style>
    </defs>
    <g id="btn_save_group_n" transform="translate(-1161 -264)">
        <g id="Ellipse_3" class="cls-1" data-name="Ellipse 3" transform="translate(1161 264)">
            <circle cx="18" cy="18" r="18" class="cls-4"/>
            <circle cx="18" cy="18" r="17.5" class="cls-5"/>
        </g>
        <circle id="btn_save_group_n-2" cx="18" cy="18" r="18" class="cls-2" data-name="btn_save_group_n" transform="translate(1161 264)"/>
        <path id="Subtraction_10" d="M-1373-2318h-16a1 1 0 0 1-1-1v-16a1 1 0 0 1 1-1h13l4 4v13a1 1 0 0 1-1 1zm-8-8a3 3 0 0 0-3 3 3 3 0 0 0 3 3 3 3 0 0 0 3-3 3 3 0 0 0-3-3zm-7-8v4h10v-4z" class="cls-3" data-name="Subtraction 10" transform="translate(2560 2609)"/>
        <g id="btn_save_group_n-3" class="cls-1" data-name="btn_save_group_n" transform="translate(1161 264)">
            <circle cx="18" cy="18" r="18" class="cls-4"/>
            <circle cx="18" cy="18" r="17.5" class="cls-5"/>
        </g>
    </g>
</svg>
