<svg xmlns="http://www.w3.org/2000/svg" width="15.523" height="23.572" viewBox="0 0 15.523 23.572">
    <defs>
        <style>
            .cls-1,.cls-2{fill:#333}.cls-2{opacity:.3}
        </style>
    </defs>
    <g id="ico_bom_small_1" transform="translate(-1478.738 -659.111)">
        <path id="Union_234" d="M7.624 23.566v-2.775c.091 0 .184.007.277.007a4.853 4.853 0 0 0 0-9.706c-.093 0-.185 0-.277.008V8.32a2.773 2.773 0 0 0 0-5.547H2.772v20.8A2.772 2.772 0 0 1 0 20.8V0h7.624a5.545 5.545 0 0 1 4.06 9.323A7.625 7.625 0 0 1 7.9 23.572c-.091 0-.184-.002-.276-.006z" class="cls-1" data-name="Union 234" transform="translate(1478.738 659.111)"/>
        <path id="Rectangle_2743" d="M0 0h5.129v2.773H0z" class="cls-2" data-name="Rectangle 2743" transform="translate(1481.51 679.909)"/>
    </g>
</svg>
