<svg xmlns="http://www.w3.org/2000/svg" width="22" height="22" viewBox="0 0 22 22">
    <defs>
        <style>
            .cls-1,.cls-2{fill:#fff}.cls-1{opacity:.3}
        </style>
    </defs>
    <g id="ico_clean_sheet_small" transform="translate(-12 -194)">
        <path id="Subtraction_24" d="M11 22a10.949 10.949 0 0 1-6.15-1.879 11.032 11.032 0 0 1-3.985-4.84A10.986 10.986 0 0 1 1.879 4.85 11.032 11.032 0 0 1 6.718.864 10.986 10.986 0 0 1 17.15 1.879a11.032 11.032 0 0 1 3.985 4.84 10.985 10.985 0 0 1-1.014 10.431 11.032 11.032 0 0 1-4.84 3.985A10.931 10.931 0 0 1 11 22zm0-19.412A8.412 8.412 0 1 0 19.412 11 8.421 8.421 0 0 0 11 2.588z" class="cls-1" data-name="Subtraction 24" transform="translate(12 194)"/>
        <path id="Subtraction_25" d="M11.056 22a11.013 11.013 0 0 1-7.818-3.222 10.96 10.96 0 0 1 0-15.556 11.084 11.084 0 0 1 15.962.336l-.273-.271-1.834 1.823a8.412 8.412 0 1 0-.065 11.844l1.84 1.83A11.013 11.013 0 0 1 11.056 22z" class="cls-2" data-name="Subtraction 25" transform="translate(12 194)"/>
    </g>
</svg>
