 <svg xmlns="http://www.w3.org/2000/svg" width="16.002" height="15.002" viewBox="0 0 16.002 15.002">
        <g id="ico_calendar_to" transform="translate(-268 -1203)">
          <path id="Subtraction_59" data-name="Subtraction 59" d="M18003-12583h-14a1,1,0,0,1-1-1v-12a1,1,0,0,1,1-1h14a1,1,0,0,1,1,1v12A1,1,0,0,1,18003-12583Zm-14-13h0v12h14v-12Z" transform="translate(-17720 13801)" fill="#00a99d" />
          <rect id="Rectangle_207" data-name="Rectangle 207" width="16" height="1" transform="translate(268 1207)" fill="#00a99d" />
          <rect id="Rectangle_208" data-name="Rectangle 208" width="2" height="2" transform="translate(279 1213)" fill="#00a99d" />
          <rect id="Rectangle_209" data-name="Rectangle 209" width="1" height="3" rx="0.5" transform="translate(271 1203)" fill="#00a99d" />
          <rect id="Rectangle_210" data-name="Rectangle 210" width="1" height="3" rx="0.5" transform="translate(280 1203)" fill="#00a99d" />
        </g>
      </svg>