<?xml version="1.0" encoding="UTF-8"?>
<svg width="24px" height="24px" viewBox="0 0 24 24" version="1.1" xmlns="http://www.w3.org/2000/svg" xmlns:xlink="http://www.w3.org/1999/xlink">
    <!-- Generator: Sketch 58 (84663) - https://sketch.com -->
    <title>icon/Function/New/Database_white</title>
    <desc>Created with Sketch.</desc>
    <g id="icon/Function/New/Database_white" stroke="none" stroke-width="1" fill="none" fill-rule="evenodd">
        <g id="Group" transform="translate(4.000000, 2.000000)" fill="#FFFFFF">
            <path d="M8,-3.89665657e-17 C12.2649615,1.00564772e-15 15.8379489,1.49066165 15.9946422,3.83859281 L16,4 L16,4 L16,16 L15.9946422,16.1614072 C15.8379489,18.5093383 12.2649615,20 8,20 C3.73503854,20 0.162051095,18.5093383 0.00535780743,16.1614072 L0,16 L0,4 L0.569378183,4.00059107 C0.569284655,4.00025904 0.569191219,3.999927 0.569097876,3.99959494 L-4.8985872e-16,4 C1.07967564e-16,1.55918897 3.63810759,-1.10732208e-15 8,-3.89665657e-17 Z M14.0013462,13.6441102 C12.6282941,14.4885016 10.4424273,15 8,15 C5.55817587,15 3.37278563,14.4887542 1.99967131,13.6447358 L2,16 L2.00623997,16.0641442 C2.06453923,16.373028 2.53218328,16.8113231 3.44417183,17.2021753 C4.61601314,17.704393 6.24676441,18 8,18 C9.75323559,18 11.3839869,17.704393 12.5558282,17.2021753 C13.4678167,16.8113231 13.9354608,16.373028 13.99376,16.0641442 L14,16 L14.0013462,13.6441102 Z M14.0023633,9.6434845 C12.6293738,10.4882489 10.4430306,11 8,11 C5.55757265,11 3.37170591,10.4885016 1.99865384,9.64411019 L1.99935084,12.4174882 C2.97523628,13.301688 5.27953436,14 8,14 C10.72139,14 13.0263296,13.3012134 14.0016435,12.4165868 Z M14.0016435,12.4165868 L14.0013462,5.64411019 C12.6282941,6.48850157 10.4424273,7 8,7 C5.55817587,7 3.37278563,6.48875419 1.99967131,5.64473576 L1.99835652,8.41658681 C2.97367038,9.30121338 5.27860997,10 8,10 C10.7223144,10 13.0278954,9.30073858 14.0026369,8.41568529 L14.0013462,5.64411019 Z M8,2 C6.24676441,2 4.61601314,2.29560698 3.44417183,2.79782469 C2.53218328,3.18867692 2.06453923,3.62697196 2.00623997,3.93585583 L2,4 L1.64715503,3.99902574 C1.64735223,3.999361 1.64754963,3.99969624 1.64774722,4.00003148 L2,4 L1.99935084,4.4174882 C2.97523628,5.30168802 5.27953436,6 8,6 C10.72139,6 13.0263296,5.30121338 14.0016435,4.41658681 L14,4 L14,4 C14,3.68982759 13.5329588,3.21659494 12.5558282,2.79782469 C11.3839869,2.29560698 9.75323559,2 8,2 Z" id="Combined-Shape" fill-rule="nonzero"></path>
            <rect id="Rectangle-Copy-6" x="3" y="7" width="2" height="2" rx="1"></rect>
            <rect id="Rectangle-Copy-7" x="3" y="11" width="2" height="2" rx="1"></rect>
            <rect id="Rectangle-Copy-8" x="3" y="15" width="2" height="2" rx="1"></rect>
        </g>
    </g>
</svg>