<svg version="1.1" xmlns="http://www.w3.org/2000/svg" xmlns:xlink="http://www.w3.org/1999/xlink" x="0px" y="0px"
	 viewBox="0 0 63.6 63.6" style="enable-background:new 0 0 63.6 63.6;" xml:space="preserve">
	<style type="text/css">
		.st0{fill:#FFFFFF;}
	</style>
	<g>
		<path d="M57.3,63.6H6.3c-3.5,0-6.3-2.8-6.3-6.3V6.3C0,2.8,2.8,0,6.3,0h50.9c3.5,0,6.3,2.8,6.3,6.3v50.9
			C63.6,60.8,60.8,63.6,57.3,63.6z"/>
		<g>
			<path class="st0" d="M46.6,18.4L35.3,31.2l5.7,12.8h-6.3l-2.9-7.8c-0.3-0.7-0.5-1.4-0.7-2.1h-0.1c-0.2,0.4-0.7,1.1-1.5,2.1
				l-6.3,7.9h-6.3l11.4-12.6l-5.5-13h6.3l2.8,8.2c0.2,0.5,0.4,1.2,0.6,2.1h0.1c0.7-0.9,1.2-1.6,1.5-2l6.6-8.3H46.6z"/>
		</g>
	</g>
</svg>
