<svg xmlns="http://www.w3.org/2000/svg" width="24" height="24" viewBox="0 0 24 24">
    <g fill="#333" fill-rule="nonzero">
        <path d="M18 3a1 1 0 0 1 1 1v3a.998.998 0 0 1-.343.754l.078-.076a1.006 1.006 0 0 1-.07.07l-.008.006a1.02 1.02 0 0 1-.43.22A1.024 1.024 0 0 1 18 8l.114-.006a1.003 1.003 0 0 1-.035.003L18 8h-3a1 1 0 0 1 0-2l-.042.002a6.524 6.524 0 0 0-2.516-.489C8.884 5.513 6 8.39 6 11.938c0 .633.092 1.253.27 1.846a1 1 0 1 1-1.916.575A8.406 8.406 0 0 1 4 11.938c0-4.654 3.78-8.425 8.442-8.425 1.675 0 3.235.46 4.558 1.31V4a1 1 0 0 1 1-1zM19.352 8.913a1 1 0 0 1 1.246.67c.234.78.354 1.593.354 2.422 0 4.653-3.78 8.424-8.443 8.424-1.676 0-3.208-.434-4.509-1.26V20a1 1 0 0 1-2 0v-3a1.022 1.022 0 0 1 .108-.453.937.937 0 0 1 .132-.196.99.99 0 0 1 .103-.105l-.07.068c.015-.016.03-.032.047-.047l.023-.02a1.02 1.02 0 0 1 .451-.226C6.861 16.007 6.93 16 7 16h3a1 1 0 0 1 .993.883L11 17a1 1 0 0 1-1 1l.092-.004a6.639 6.639 0 0 0 2.417.433c3.559 0 6.443-2.877 6.443-6.424 0-.634-.092-1.253-.27-1.846a1 1 0 0 1 .67-1.246z"/>
    </g>
</svg>
